<svg xmlns="http://www.w3.org/2000/svg" viewBox="0 0 512 512" role="img" aria-labelledby="title desc">
  <title id="title">Taxi 25 Denia</title>
  <desc id="desc">Yellow Taxi 25 Denia mark with black 25 and taxi roof line.</desc>
  <rect width="512" height="512" rx="112" fill="#f6c62f"/>
  <path d="M138 146h236c18 0 34 11 41 28l30 73h-48l-18-45c-3-7-10-12-18-12H151c-8 0-15 5-18 12l-18 45H67l30-73c7-17 23-28 41-28Z" fill="#18140d"/>
  <path d="M96 247h320c27 0 49 22 49 49v78c0 14-11 25-25 25h-25c-14 0-25-11-25-25v-13H122v13c0 14-11 25-25 25H72c-14 0-25-11-25-25v-78c0-27 22-49 49-49Z" fill="#18140d"/>
  <circle cx="139" cy="319" r="31" fill="#f6c62f"/>
  <circle cx="373" cy="319" r="31" fill="#f6c62f"/>
  <path d="M171 312h170" stroke="#f6c62f" stroke-width="26" stroke-linecap="round"/>
  <text x="256" y="255" text-anchor="middle" font-family="Arial, Helvetica, sans-serif" font-size="116" font-weight="900" letter-spacing="-8" fill="#f6c62f">25</text>
</svg>